<svg xmlns="http://www.w3.org/2000/svg" viewBox="0 0 606.29 382.04"><defs><style>.cls-1,.cls-3{fill:#17233c;}.cls-1,.cls-2{stroke:#fff;stroke-miterlimit:10;stroke-width:4px;}.cls-2{fill:#646466;}.cls-3{font-size:109px;font-family:Billabong;}</style></defs><g id="Layer_2" data-name="Layer 2"><g id="Layer_1-2" data-name="Layer 1"><polygon class="cls-1" points="30.73 254.64 107.38 39.57 145.85 166.98 98.56 298.27 30.73 254.64"/><polygon class="cls-1" points="24.32 274.86 109.03 380.04 191.61 380.04 24.32 274.86"/><polygon class="cls-2" points="125.38 334.63 202.32 118.98 241.5 244.98 193.5 378.04 125.38 334.63"/><polygon class="cls-1" points="272.56 333.92 360.79 333.92 299.97 114.98 203.03 114.98 272.56 333.92"/><polygon class="cls-2" points="362.56 178.63 333.26 224.45 364.32 333.92 398.56 269.69 362.56 178.63"/><polygon class="cls-1" points="357.01 164.12 454.97 157.99 512.58 315.29 443.42 375.36 357.01 164.12"/><polygon class="cls-2" points="444.76 374.69 599.17 266.67 530.66 373.85 444.76 374.69"/><circle class="cls-2" cx="158.09" cy="65.26" r="30.18"/><polygon class="cls-1" points="15.46 252.15 92.11 37.08 130.59 164.49 83.29 295.79 15.46 252.15"/><polygon class="cls-1" points="9.06 272.37 93.76 377.55 176.35 377.55 9.06 272.37"/><polygon class="cls-2" points="110.11 332.14 187.06 116.49 226.23 242.49 178.23 375.55 110.11 332.14"/><polygon class="cls-1" points="257.29 331.43 345.53 331.43 284.7 112.49 187.76 112.49 257.29 331.43"/><polygon class="cls-2" points="347.29 176.14 318 221.96 349.06 331.43 383.29 267.2 347.29 176.14"/><polygon class="cls-1" points="341.75 161.63 439.71 155.5 497.32 312.8 428.15 372.87 341.75 161.63"/><polygon class="cls-2" points="429.5 372.2 583.91 264.19 515.4 371.37 429.5 372.2"/><circle class="cls-2" cx="142.83" cy="62.78" r="30.18"/><text class="cls-3" transform="translate(202.41 89.54)">UPF</text></g></g></svg>