<svg xmlns="http://www.w3.org/2000/svg" viewBox="0 0 601.4 413.78"><defs><style>.cls-1,.cls-8{fill:#626465;stroke-width:3px;}.cls-1,.cls-3,.cls-4,.cls-5,.cls-6,.cls-7,.cls-8{stroke:#fff;}.cls-1,.cls-2,.cls-3,.cls-4,.cls-5,.cls-6,.cls-7,.cls-8{stroke-miterlimit:10;}.cls-1{opacity:0.34;}.cls-2{fill:#474747;stroke:#1d1d1b;opacity:0.24;}.cls-3,.cls-9{fill:#fff;}.cls-3,.cls-4,.cls-5,.cls-7{stroke-width:2px;}.cls-4{fill:#626365;}.cls-5{fill:#feffff;}.cls-6{fill:#fbfdff;}.cls-7{fill:#626264;}</style></defs><g id="Layer_2" data-name="Layer 2"><g id="Layer_2-2" data-name="Layer 2"><circle class="cls-1" cx="148.37" cy="66.17" r="33.02"/><polygon class="cls-2" points="113.46 406.72 200.89 406.72 130.38 362.14 24 294.89 113.46 406.72"/><polygon class="cls-2" points="209.02 140.37 249.69 272.52 200.89 406.72 130.38 362.14 209.02 140.37"/><polygon class="cls-2" points="278.15 361.99 369.65 361.99 337.84 250.16 306.62 140.37 209.02 140.37 278.15 361.99"/><polygon class="cls-2" points="366.24 187.46 465.82 184.36 519.74 348.47 447.3 406.67 406.77 297.06 366.24 187.46"/><polygon class="cls-2" points="377.78 350.81 406.75 295.91 369.65 201.36 337.84 250.16 369.65 361.99 377.78 350.81"/><polygon class="cls-2" points="536.43 398.39 599.78 281.68 444.26 406.38 536.43 398.39"/><polygon class="cls-2" points="113.85 61.36 154.51 193.52 105.71 327.71 35.2 283.13 113.85 61.36"/><polygon class="cls-3" points="93.97 412.27 181.4 412.27 110.89 367.69 4.51 300.44 93.97 412.27"/><polygon class="cls-4" points="189.53 145.91 230.19 278.08 181.4 412.27 110.89 367.69 189.53 145.91"/><polygon class="cls-5" points="258.66 367.54 350.16 367.54 318.35 255.71 287.13 145.91 189.53 145.91 258.66 367.54"/><polygon class="cls-6" points="346.75 193 446.33 189.91 500.25 354.02 427.81 412.22 387.28 302.61 346.75 193"/><polygon class="cls-7" points="358.29 356.36 387.26 301.46 350.16 206.91 318.35 255.71 350.16 367.54 358.29 356.36"/><polygon class="cls-4" points="516.93 403.94 580.29 287.23 424.77 411.93 516.93 403.94"/><polygon class="cls-5" points="94.35 72.16 135.02 201.71 86.22 333.26 15.71 289.56 94.35 72.16"/><circle class="cls-8" cx="140.58" cy="61.36" r="33.02"/><path class="cls-9" d="M260.05,33l-19.59,92.13c-1.71,8.27.12,13.5,7.24,13.5,7.92,0,10.12-5.85,11.72-13.54L279,33h18.42l-19.25,90.43c-4.13,19.08-9.47,31.62-32.29,31.62-19.58,0-27.78-10.48-23.35-31.49L241.8,33Z" transform="translate(0 -33.04)"/><path class="cls-9" d="M336.21,33h23.22c19.84,0,28.33,11.91,24.31,32.14l-1.63,8.28c-3.74,19.24-11.81,29-35.21,29h-7.26l-10.83,51.22H310.57ZM343,87.27h6.12c10.1,0,12.67-5.13,14.78-14.83l1.47-7c2.05-9.51,2.12-17.1-8.17-17.1h-6.05Z" transform="translate(0 -33.04)"/><path class="cls-9" d="M425.76,33H472l-3.65,16.9H440.67l-6.61,32.13h26.33L456.6,99H430.27L418.7,153.65H400.12Z" transform="translate(0 -33.04)"/></g></g></svg>